<svg xmlns="http://www.w3.org/2000/svg" viewBox="0 0 32 32" width="32" height="32">
  <defs>
    <linearGradient id="grad1" x1="0%" y1="0%" x2="100%" y2="100%">
      <stop offset="0%" style="stop-color:#ff6b35;stop-opacity:1" />
      <stop offset="100%" style="stop-color:#f39c12;stop-opacity:1" />
    </linearGradient>
    <linearGradient id="grad2" x1="0%" y1="0%" x2="100%" y2="100%">
      <stop offset="0%" style="stop-color:#4a90e2;stop-opacity:1" />
      <stop offset="100%" style="stop-color:#9b59b6;stop-opacity:1" />
    </linearGradient>
  </defs>
  
  <!-- Background circle -->
  <circle cx="16" cy="16" r="15" fill="url(#grad1)" stroke="url(#grad2)" stroke-width="1"/>
  
  <!-- Octopus body -->
  <ellipse cx="16" cy="13" rx="5" ry="4" fill="url(#grad2)"/>
  
  <!-- Octopus eyes -->
  <circle cx="14.5" cy="12" r="1" fill="white"/>
  <circle cx="17.5" cy="12" r="1" fill="white"/>
  <circle cx="14.5" cy="12" r="0.5" fill="#2c3e50"/>
  <circle cx="17.5" cy="12" r="0.5" fill="#2c3e50"/>
  
  <!-- Octopus tentacles -->
  <path d="M12 16 Q10 20 12 23 Q13 21 12 18" fill="url(#grad2)" opacity="0.8"/>
  <path d="M14 17 Q12 21 14 24 Q15 22 14 19" fill="url(#grad2)" opacity="0.8"/>
  <path d="M18 17 Q20 21 18 24 Q17 22 18 19" fill="url(#grad2)" opacity="0.8"/>
  <path d="M20 16 Q22 20 20 23 Q19 21 20 18" fill="url(#grad2)" opacity="0.8"/>
  
  <!-- Small weights -->
  <rect x="9" y="8" width="1" height="4" fill="white" rx="0.5"/>
  <rect x="8.5" y="8.5" width="2" height="1" fill="white" rx="0.5"/>
  <rect x="8.5" y="10.5" width="2" height="1" fill="white" rx="0.5"/>
  
  <rect x="22" y="8" width="1" height="4" fill="white" rx="0.5"/>
  <rect x="21.5" y="8.5" width="2" height="1" fill="white" rx="0.5"/>
  <rect x="21.5" y="10.5" width="2" height="1" fill="white" rx="0.5"/>
</svg>